General
Unique ID                                : 330135006623497854768278361026892165318 (0xF85DB082B8F6CDDFB1DE4ADD8DF870C6)
Complete name                            : ASIAN KUNG-FU GENERATION - Planet of the Apes [WEB-DL 1080p AAC x264-SEKAI].mkv
Format                                   : Matroska
Format version                           : Version 4
File size                                : 195 MiB
Duration                                 : 2 min 35 s
Overall bit rate                         : 10.5 Mb/s
Frame rate                               : 29.970 FPS
Title                                    : ASIAN KUNG-FU GENERATION - Planet of the Apes [WEB-DL 1080p AAC x264-SEKAI]
Encoded date                             : 2025-09-27 16:38:00 UTC
Writing application                      : mkvmerge 95.0 ('Goodbye Stranger') 64-bit
Writing library                          : libebml v1.4.5 + libmatroska v1.7.1
Website                                  : https://sekai-archivist.blogspot.com/

Video
ID                                       : 1
Format                                   : AVC
Format/Info                              : Advanced Video Codec
Format profile                           : High@L4
Format settings                          : CABAC / 4 Ref Frames
Format settings, CABAC                   : Yes
Format settings, Reference frames        : 4 frames
Format settings, Slice count             : 8 slices per frame
Codec ID                                 : V_MPEG4/ISO/AVC
Duration                                 : 2 min 35 s
Bit rate                                 : 10.2 Mb/s
Width                                    : 1 914 pixels
Height                                   : 1 080 pixels
Display aspect ratio                     : 16:9
Frame rate mode                          : Constant
Frame rate                               : 29.970 FPS
Color space                              : YUV
Chroma subsampling                       : 4:2:0 (Type 2)
Bit depth                                : 8 bits
Scan type                                : Progressive
Bits/(Pixel*Frame)                       : 0.165
Stream size                              : 190 MiB (97%)
Default                                  : Yes
Forced                                   : No
Color range                              : Limited
Color primaries                          : BT.709
Transfer characteristics                 : BT.709
Matrix coefficients                      : BT.709

Audio
ID                                       : 2
Format                                   : AAC LC
Format/Info                              : Advanced Audio Codec Low Complexity
Codec ID                                 : A_AAC-2
Duration                                 : 2 min 35 s
Bit rate                                 : 282 kb/s
Channel(s)                               : 2 channels
Channel layout                           : L R
Sampling rate                            : 48.0 kHz
Frame rate                               : 46.875 FPS (1024 SPF)
Compression mode                         : Lossy
Stream size                              : 5.24 MiB (3%)
Default                                  : Yes
Forced                                   : No


